HIERARCHY
ROOT ui
{
	 OFFSET 0 0 0
	 CHANNELS 3 XPosition YPosition Z Position
	 EndSite
	 {
	 OFFSET 0 -1 0
	 }
}
ROOT li
{
	 OFFSET 0 0 0
	 CHANNELS 3 XPosition YPosition Z Position
	 EndSite
	 {
	 OFFSET 0 -1 0
	 }
}
ROOT ul
{
	 OFFSET 0 0 0
	 CHANNELS 3 XPosition YPosition Z Position
	 EndSite
	 {
	 OFFSET 0 -1 0
	 }
}
ROOT ll
{
	 OFFSET 0 0 0
	 CHANNELS 3 XPosition YPosition Z Position
	 EndSite
	 {
	 OFFSET 0 -1 0
	 }
}
ROOT tt
{
	 OFFSET 0 0 0
	 CHANNELS 3 XPosition YPosition Z Position
	 EndSite
	 {
	 OFFSET 0 -1 0
	 }
}
ROOT tb
{
	 OFFSET 0 0 0
	 CHANNELS 3 XPosition YPosition Z Position
	 EndSite
	 {
	 OFFSET 0 -1 0
	 }
}
ROOT td
{
	 OFFSET 0 0 0
	 CHANNELS 3 XPosition YPosition Z Position
	 EndSite
	 {
	 OFFSET 0 -1 0
	 }
}
ROOT v
{
	 OFFSET 0 0 0
	 CHANNELS 3 XPosition YPosition Z Position
	 EndSite
	 {
	 OFFSET 0 -1 0
	 }
}
ROOT bn
{
	 OFFSET 0 0 0
	 CHANNELS 3 XPosition YPosition Z Position
	 EndSite
	 {
	 OFFSET 0 -1 0
	 }
}
MOTION
Frames: 10
Frame Time: 0.002
9.982439875602723E-4	4.5326501131057737E-4	0		0.4514920654296875	-2.36828857421875	0		-0.9734793701171875	-0.0615657958984375	0		-0.7276234741210937	-2.313084228515625	0		1.4989853515625	-0.6004083862304688	0		3.220044189453125	0.018409774780273436	0		4.61172705078125	0.13488023376464844	0		5.63814697265625	0.14482258605957032	0		-0.1565811004638672	5.9199326171875	0		
0.055322563171386716	0.00494871997833252	0		0.47894046020507813	-2.367202392578125	0		-0.976260498046875	-0.061986751556396484	0		-0.79899560546875	-2.302076416015625	0		1.49037353515625	-0.5944990844726562	0		3.207094970703125	0.010549210548400878	0		4.587626953125	0.1203635025024414	0		5.6312060546875	0.13804356384277344	0		-0.18829098510742187	5.8991572265625	0		
0.019629823684692384	0.007297677993774414	0		0.46552047729492185	-2.36126708984375	0		-0.9820760498046875	-0.06633226013183594	0		-0.730722900390625	-2.31191259765625	0		1.4904786376953125	-0.60476171875	0		3.22035107421875	0.010161694526672363	0		4.58487744140625	0.12041560363769531	0		5.62265966796875	0.14830189514160155	0		-0.19247712707519532	5.90083447265625	0		
0.021868133544921876	0.0018876910209655762	0		0.43507586669921877	-2.3599736328125	0		-0.9847294921875	-0.06672171783447266	0		-0.7691292114257813	-2.308552734375	0		1.50198681640625	-0.5992392578125	0		3.19275732421875	0.013613160133361817	0		4.59936767578125	0.1281233673095703	0		5.6216240234375	0.13040171813964843	0		-0.19464665222167968	5.89848828125	0		
0.016258127212524415	-0.0013426049947738647	0		0.45863934326171873	-2.36375830078125	0		-0.9872742919921875	-0.06708967590332031	0		-0.7376116333007813	-2.31458984375	0		1.4702864990234374	-0.6088306274414063	0		3.196043701171875	0.005442999839782715	0		4.56867236328125	0.12174647521972656	0		5.623224609375	0.1384532012939453	0		-0.1976446075439453	5.89818017578125	0		
0.041873626708984375	-1.7847399413585663E-4	0		0.44335205078125	-2.365736572265625	0		-1.0585740966796875	-0.06104614639282226	0		-0.808649658203125	-2.303529541015625	0		1.4829884033203125	-0.605301025390625	0		3.212720947265625	0.01001564598083496	0		4.57450439453125	0.1346372833251953	0		5.6207958984375	0.13858323669433595	0		-0.1710901336669922	5.91730517578125	0		
0.017685598373413085	0.00401331901550293	0		0.4712720031738281	-2.364560302734375	0		-0.9807384033203125	-0.0569742546081543	0		-0.7697561645507812	-2.30365771484375	0		1.4807562255859374	-0.6054530639648438	0		3.1855126953125	0.01348033332824707	0		4.5742421875	0.13565213012695312	0		5.618513671875	0.13870852661132813	0		-0.20315472412109375	5.8976279296875	0		
0.00760997200012207	0.005945734024047852	0		0.41859173583984377	-2.349742431640625	0		-0.990990234375	-0.06410193634033202	0		-0.7758094482421874	-2.307852783203125	0		1.4835758056640624	-0.6106884765625	0		3.175176513671875	0.0026117329597473145	0		4.56799755859375	0.1297886505126953	0		5.61222900390625	0.13091017150878906	0		-0.20563729858398438	5.89738720703125	0		
0.01055177116394043	6.431959867477417E-4	0		0.45048193359375	-2.36459814453125	0		-0.9960228881835937	-0.06830181121826172	0		-0.7905135498046875	-2.30184326171875	0		1.459597900390625	-0.613369384765625	0		3.17905859375	-0.00553049898147583	0		4.55503564453125	0.13006275939941406	0		5.60446484375	0.14114183044433593	0		-0.207928955078125	5.89717138671875	0		
0.005696102142333985	-0.0024763829708099364	0		0.4316907653808594	-2.370416015625	0		-0.9978159790039063	-0.06853330230712891	0		-0.781353271484375	-2.31028125	0		1.4747498779296875	-0.6178121337890625	0		3.1873994140625	0.0012520420551300048	0		4.55323193359375	0.1301161651611328	0		5.60262109375	0.13924949645996093	0		-0.21002818298339843	5.89697998046875	0		
